<?xml version="1.0" standalone="no"?>
<!DOCTYPE svg PUBLIC "-//W3C//DTD SVG 20010904//EN"
 "http://www.w3.org/TR/2001/REC-SVG-20010904/DTD/svg10.dtd">
<svg version="1.0" xmlns="http://www.w3.org/2000/svg"
 width="1024.000000pt" height="1024.000000pt" viewBox="0 0 1024.000000 1024.000000"<defs>
    <linearGradient id="mascot-gradient" x1="0%" y1="0%" x2="100%" y2="100%">
      <stop offset="0%" stop-color="#E8338B"/>
      <stop offset="100%" stop-color="#FF5E79"/>
    </linearGradient>
  </defs>
 preserveAspectRatio="xMidYMid meet">

<g transform="translate(...)" fill="url(#mascot-gradient)" stroke="none">
<path fill="url(#mascot-gradient)" />
<path d="M2544 9262 c-190 -123 -358 -359 -414 -582 -27 -107 -36 -277 -21
-395 7 -49 30 -142 51 -205 l39 -115 -19 -25 c-128 -164 -297 -472 -375 -684
-209 -569 -260 -1213 -139 -1747 141 -625 519 -1097 1348 -1685 111 -79 210
-150 221 -158 19 -14 19 -15 -15 -30 -138 -60 -310 -230 -376 -371 -65 -139
-81 -342 -39 -500 81 -308 378 -582 768 -710 145 -47 268 -66 457 -72 478 -15
912 149 1338 506 300 252 567 581 888 1094 192 307 279 424 428 573 227 226
422 314 697 314 203 0 349 -41 679 -190 327 -148 436 -176 641 -168 99 4 140
11 204 32 97 33 183 84 253 150 28 27 52 45 52 40 0 -5 9 -40 19 -78 l18 -69
26 44 c76 130 116 300 117 497 0 78 -3 142 -7 142 -5 0 -26 -30 -48 -66 -58
-96 -164 -190 -277 -248 -51 -26 -97 -51 -102 -56 -4 -4 24 -24 64 -43 l72
-35 -29 -19 c-88 -63 -201 -94 -341 -94 -178 -1 -313 51 -592 227 -268 168
-442 244 -637 279 -343 59 -735 -64 -1072 -338 -123 -100 -295 -278 -486 -502
-305 -359 -347 -405 -465 -523 -110 -109 -273 -242 -296 -242 -7 0 -3 26 12
69 56 167 68 258 69 516 0 193 -3 256 -18 322 -87 403 -223 632 -672 1128
-458 507 -531 767 -314 1127 l40 66 67 15 c181 41 339 140 452 282 270 341
250 848 -51 1264 l-60 84 31 85 c17 48 38 117 46 155 18 87 18 282 0 369 -40
188 -153 371 -300 486 -67 53 -155 106 -162 99 -3 -3 4 -32 16 -66 11 -34 25
-97 31 -140 24 -176 -50 -366 -208 -538 l-48 -53 -85 26 c-171 51 -297 68
-515 68 -178 0 -214 -3 -325 -27 -69 -15 -167 -42 -219 -62 l-93 -35 -39 31
c-116 92 -210 233 -246 369 -31 118 -16 318 32 433 11 26 -6 21 -71 -21z m681
-1496 c106 -28 187 -89 242 -183 81 -139 68 -345 -31 -480 -73 -99 -177 -153
-297 -153 -81 0 -145 20 -216 67 -201 133 -231 455 -60 640 95 103 231 144
362 109z m1190 -7 c271 -101 344 -486 130 -688 -64 -60 -113 -86 -193 -101
-176 -32 -351 81 -412 265 -31 93 -25 234 12 317 29 63 94 139 149 173 91 58
215 71 314 34z m-674 -4551 c116 -146 133 -301 42 -366 -133 -95 -313 8 -313
178 0 67 20 111 75 166 48 48 90 71 137 73 10 1 36 -22 59 -51z"/>
<path d="M3105 7544 c-73 -38 -105 -95 -105 -186 1 -184 167 -274 286 -155 45
45 64 94 64 165 0 44 -9 52 -30 27 -28 -33 -86 -12 -103 38 -8 21 17 87 32 87
23 0 9 19 -20 29 -44 15 -89 14 -124 -5z"/>
<path d="M4259 7547 c-33 -18 -51 -37 -71 -76 -45 -87 -34 -182 29 -252 62
-69 146 -75 217 -17 50 41 76 98 76 171 0 60 -7 70 -28 37 -15 -25 -53 -26
-82 -2 -31 25 -31 84 -1 116 l22 24 -32 11 c-48 17 -81 14 -130 -12z"/>
 
  <!-- Eyes for tracking (add these before </g>) -->
  <circle id="eye-left" cx="40" cy="40" r="6" fill="#fff" />
  <circle id="eye-right" cx="68" cy="40" r="6" fill="#fff" />
</g>
</svg>
